<svg version="1.1" xmlns="http://www.w3.org/2000/svg" viewBox="0 0 824.0508117675781 337.36138916015625" width="1648.1016235351562" height="674.7227783203125">
  <!-- svg-source:excalidraw -->
  
  <defs>
    <style class="style-fonts">
      @font-face {
        font-family: "Virgil";
        src: url("https://excalidraw.com/Virgil.woff2");
      }
      @font-face {
        font-family: "Cascadia";
        src: url("https://excalidraw.com/Cascadia.woff2");
      }
    </style>
  </defs>
  <g stroke-linecap="round" transform="translate(10 27.36138916015625) rotate(0 118.5 150)"><path d="M32 0 M32 0 C96.28 0.31, 162.44 1.08, 205 0 M32 0 C96.98 -1.3, 161.25 -1.47, 205 0 M205 0 C227.52 -0.13, 237.6 8.89, 237 32 M205 0 C225.97 0.72, 235.05 9.02, 237 32 M237 32 C239.58 107.33, 238.4 185.42, 237 268 M237 32 C235.94 113.84, 236.46 195.78, 237 268 M237 268 C237.46 288.97, 225.61 301.65, 205 300 M237 268 C237.7 287.72, 227.64 299.23, 205 300 M205 300 C153.3 300.6, 102.5 300.4, 32 300 M205 300 C148.07 299.4, 89.69 298.83, 32 300 M32 300 C11.68 301.48, -0.08 288.57, 0 268 M32 300 C9.94 300.43, -1.22 291.63, 0 268 M0 268 C0.2 189.94, -0.47 108.11, 0 32 M0 268 C0.02 193.76, 0.27 120.77, 0 32 M0 32 C1.98 10.14, 10.81 1.51, 32 0 M0 32 C0.89 9.74, 8.77 -1.31, 32 0" stroke="#000000" stroke-width="1" fill="none"></path></g><g stroke-linecap="round" transform="translate(74.13531494140625 98.4794921875) rotate(0 73.89512634277344 17.5)"><path d="M8.75 0 M8.75 0 C46.2 1.25, 82.73 1.76, 139.04 0 M8.75 0 C40.11 1.64, 71.85 1.02, 139.04 0 M139.04 0 C143.51 0.88, 149.52 4.85, 147.79 8.75 M139.04 0 C147.09 0.63, 147.07 2.81, 147.79 8.75 M147.79 8.75 C148.29 17.43, 146.74 23.46, 147.79 26.25 M147.79 8.75 C147.48 12.45, 146.88 15.67, 147.79 26.25 M147.79 26.25 C148.52 30.62, 146.26 35.7, 139.04 35 M147.79 26.25 C146.45 33.37, 143.97 32.88, 139.04 35 M139.04 35 C94.76 34.17, 52.49 36.5, 8.75 35 M139.04 35 C88.61 36.41, 38.84 36.52, 8.75 35 M8.75 35 C4.85 36.19, 1.37 30.31, 0 26.25 M8.75 35 C2.39 36.97, 0.74 29.88, 0 26.25 M0 26.25 C0.37 22.29, -0.04 19.13, 0 8.75 M0 26.25 C0.05 21.95, -0.4 18.48, 0 8.75 M0 8.75 C1.65 0.95, 2.18 -0.52, 8.75 0 M0 8.75 C-1.75 2.16, 2.48 -1.05, 8.75 0" stroke="#000000" stroke-width="1" fill="none"></path></g><g transform="translate(128.0304412841797 103.4794921875) rotate(0 20 12.5)"><text x="20" y="18" font-family="Virgil, Segoe UI Emoji" font-size="20px" fill="#000000" text-anchor="middle" style="white-space: pre;" direction="ltr">run </text></g><g stroke-linecap="round" transform="translate(73.16050720214844 157.455322265625) rotate(0 73.89512634277344 17.5)"><path d="M8.75 0 M8.75 0 C42.19 0.76, 75.58 0.62, 139.04 0 M8.75 0 C44.54 -1.36, 82.68 -0.08, 139.04 0 M139.04 0 C146.63 1.83, 147.73 4.23, 147.79 8.75 M139.04 0 C145.78 0.56, 147.09 2.4, 147.79 8.75 M147.79 8.75 C149.47 14.73, 148.59 22.31, 147.79 26.25 M147.79 8.75 C147.94 11.93, 147.75 16.7, 147.79 26.25 M147.79 26.25 C147.4 31.59, 144.01 35.15, 139.04 35 M147.79 26.25 C147.12 29.99, 143.03 34.2, 139.04 35 M139.04 35 C89.63 35.83, 39.51 35.76, 8.75 35 M139.04 35 C93.9 34.96, 48.27 35.01, 8.75 35 M8.75 35 C4.62 35.18, 0.39 33.95, 0 26.25 M8.75 35 C2.89 34.32, 0.19 32.14, 0 26.25 M0 26.25 C-0.68 20.58, -0.43 16.91, 0 8.75 M0 26.25 C-0.21 20.53, -0.44 13.53, 0 8.75 M0 8.75 C0.69 1.06, 1.23 -1.56, 8.75 0 M0 8.75 C1.49 3.47, 3.01 -1, 8.75 0" stroke="#000000" stroke-width="1" fill="none"></path></g><g transform="translate(114.55563354492188 162.455322265625) rotate(0 32.5 12.5)"><text x="32.5" y="18" font-family="Virgil, Segoe UI Emoji" font-size="20px" fill="#000000" text-anchor="middle" style="white-space: pre;" direction="ltr">compile</text></g><g stroke-linecap="round" transform="translate(72.58482360839844 213.847900390625) rotate(0 73.89512634277344 17.5)"><path d="M8.75 0 M8.75 0 C52.52 0.15, 95.62 -1.51, 139.04 0 M8.75 0 C41.27 -0.25, 73.89 0.93, 139.04 0 M139.04 0 C145.26 0, 149.49 1.61, 147.79 8.75 M139.04 0 C144.09 0.83, 148.43 0.96, 147.79 8.75 M147.79 8.75 C148.48 13.07, 149.13 17.9, 147.79 26.25 M147.79 8.75 C148.55 14.58, 148.66 20.3, 147.79 26.25 M147.79 26.25 C147.95 32.01, 146.53 35.34, 139.04 35 M147.79 26.25 C145.92 33.97, 145.45 35.37, 139.04 35 M139.04 35 C94.92 36.29, 50.14 35.18, 8.75 35 M139.04 35 C105.14 33.5, 69.86 34.92, 8.75 35 M8.75 35 C4.46 34.49, 0.03 30.6, 0 26.25 M8.75 35 C3.51 34.81, 0.15 33.41, 0 26.25 M0 26.25 C0.78 21.43, 0.06 14.09, 0 8.75 M0 26.25 C0.5 21.72, 0.96 15.98, 0 8.75 M0 8.75 C0.64 1.71, 3.86 1.2, 8.75 0 M0 8.75 C0.7 2.29, 4.91 -0.66, 8.75 0" stroke="#000000" stroke-width="1" fill="none"></path></g><g transform="translate(126.47994995117188 218.847900390625) rotate(0 20 12.5)"><text x="20" y="18" font-family="Virgil, Segoe UI Emoji" font-size="20px" fill="#000000" text-anchor="middle" style="white-space: pre;" direction="ltr">emit</text></g><g stroke-linecap="round" transform="translate(72.42308044433594 270.8753967285156) rotate(0 73.89512634277344 17.5)"><path d="M8.75 0 M8.75 0 C34.38 -0.21, 59.98 0.44, 139.04 0 M8.75 0 C46.12 -0.72, 84.92 0.81, 139.04 0 M139.04 0 C143.34 1.32, 147.37 2.42, 147.79 8.75 M139.04 0 C142.71 -1.78, 148.44 3.43, 147.79 8.75 M147.79 8.75 C146.12 13.97, 146.87 23.78, 147.79 26.25 M147.79 8.75 C148.46 13.32, 148.28 19.3, 147.79 26.25 M147.79 26.25 C146.44 33.38, 144.12 34.13, 139.04 35 M147.79 26.25 C147.57 30.61, 146.07 35.38, 139.04 35 M139.04 35 C112.47 33.9, 85.17 34.68, 8.75 35 M139.04 35 C112.15 35.68, 85.35 36.35, 8.75 35 M8.75 35 C2.65 33.16, 0.9 33.35, 0 26.25 M8.75 35 C1.67 34.47, -1.5 29.96, 0 26.25 M0 26.25 C-1.09 20.6, 1.46 15.48, 0 8.75 M0 26.25 C0.92 19.85, -0.24 13.15, 0 8.75 M0 8.75 C1.18 3.9, 3.78 -0.95, 8.75 0 M0 8.75 C1.46 3.39, 2.47 0.1, 8.75 0" stroke="#000000" stroke-width="1" fill="none"></path></g><g transform="translate(124.31820678710938 275.8753967285156) rotate(0 22 12.5)"><text x="22" y="18" font-family="Virgil, Segoe UI Emoji" font-size="20px" fill="#000000" text-anchor="middle" style="white-space: pre;" direction="ltr">done</text></g><g stroke-linecap="round" transform="translate(75.29936218261719 41.485931396484375) rotate(0 73.89512634277344 17.5)"><path d="M8.75 0 M8.75 0 C49.64 0.29, 90.67 -1.6, 139.04 0 M8.75 0 C60.12 0.06, 110.69 -0.36, 139.04 0 M139.04 0 C143.37 -1.96, 148.19 2.99, 147.79 8.75 M139.04 0 C145.61 -2.18, 149.89 4.5, 147.79 8.75 M147.79 8.75 C146.88 16.48, 149.42 20.05, 147.79 26.25 M147.79 8.75 C148.56 12.97, 148.58 16.66, 147.79 26.25 M147.79 26.25 C148.28 32.39, 145.17 34.67, 139.04 35 M147.79 26.25 C148.03 33.53, 145.21 34.06, 139.04 35 M139.04 35 C101.12 33.59, 61.29 35.32, 8.75 35 M139.04 35 C101.86 36.25, 66.96 36.42, 8.75 35 M8.75 35 C2.73 35.99, 0.07 33, 0 26.25 M8.75 35 C4.19 34.05, -0.68 30.7, 0 26.25 M0 26.25 C0.39 20.99, -1.2 13.03, 0 8.75 M0 26.25 C-0.37 19.43, -0.05 12.45, 0 8.75 M0 8.75 C1.17 3.9, 2.92 -1.24, 8.75 0 M0 8.75 C1.72 2.36, 2.32 1.49, 8.75 0" stroke="#000000" stroke-width="1" fill="none"></path></g><g transform="translate(109.19448852539062 46.485931396484375) rotate(0 40 12.5)"><text x="40" y="18" font-family="Virgil, Segoe UI Emoji" font-size="20px" fill="#000000" text-anchor="middle" style="white-space: pre;" direction="ltr">initialize</text></g><g transform="translate(-71.7471923828125 158.80569458007812) rotate(270.21151727484107 112 12)"><text x="0" y="20" font-family="Cascadia, Segoe UI Emoji" font-size="20px" fill="#000000" text-anchor="start" style="white-space: pre;" direction="ltr">webpack build phase</text></g><g stroke-linecap="round" transform="translate(307.2611999511719 253.89688110351562) rotate(0 112 29)"><path d="M14.5 0 M14.5 0 C74.8 1.86, 139.53 -0.89, 209.5 0 M14.5 0 C80.46 0.97, 145.2 0.98, 209.5 0 M209.5 0 C219.79 0.16, 223.86 4.98, 224 14.5 M209.5 0 C218.74 1.17, 221.99 5.19, 224 14.5 M224 14.5 C225.26 26.72, 225.09 35.22, 224 43.5 M224 14.5 C224.04 21.19, 224.18 27.62, 224 43.5 M224 43.5 C222.31 51.75, 220.33 58.59, 209.5 58 M224 43.5 C225.69 53.04, 221.28 59.23, 209.5 58 M209.5 58 C164.11 58.27, 115.48 60.1, 14.5 58 M209.5 58 C139.73 59.19, 68.63 58.75, 14.5 58 M14.5 58 C2.94 57.89, -1.4 54.63, 0 43.5 M14.5 58 C6.34 58.76, -2.21 52.26, 0 43.5 M0 43.5 C-1.74 36.38, 0.93 29.13, 0 14.5 M0 43.5 C0.59 36.67, 0.45 31.15, 0 14.5 M0 14.5 C0.47 6.67, 5.32 -0.75, 14.5 0 M0 14.5 C-0.39 3.98, 7.11 0.87, 14.5 0" stroke="#000000" stroke-width="1" fill="none"></path></g><g transform="translate(324.7611999511719 258.8968811035156) rotate(0 94.5 24)"><text x="94.5" y="20" font-family="Cascadia, Segoe UI Emoji" font-size="20px" fill="#000000" text-anchor="middle" style="white-space: pre;" direction="ltr">dependencies(js </text><text x="94.5" y="44" font-family="Cascadia, Segoe UI Emoji" font-size="20px" fill="#000000" text-anchor="middle" style="white-space: pre;" direction="ltr">and assets)</text></g><g stroke-linecap="round"><g transform="translate(229.25723266601562 241.88686323881672) rotate(0 37.88245992728508 15.488953887401976)"><path d="M-1.06 -0.88 C11.52 4.32, 62.02 25.29, 74.72 30.3 M0.59 1.27 C13.58 6.76, 63.97 27.08, 76.82 31.86" stroke="#000000" stroke-width="1" fill="none"></path></g><g transform="translate(229.25723266601562 241.88686323881672) rotate(0 37.88245992728508 15.488953887401976)"><path d="M45.36 29.23 C54.09 30.38, 59.4 31.95, 77.01 33.68 M47.03 31.55 C59.04 32.14, 69.89 31.08, 76.2 32.17" stroke="#000000" stroke-width="1" fill="none"></path></g><g transform="translate(229.25723266601562 241.88686323881672) rotate(0 37.88245992728508 15.488953887401976)"><path d="M52.82 10.11 C59.62 15.78, 63.15 21.92, 77.01 33.68 M54.48 12.43 C63.68 20.59, 71.56 27.15, 76.2 32.17" stroke="#000000" stroke-width="1" fill="none"></path></g></g><mask></mask><g stroke-linecap="round" transform="translate(410.8706359863281 117.68414306640625) rotate(0 112 29)"><path d="M14.5 0 M14.5 0 C73.04 0.96, 134.31 2.62, 209.5 0 M14.5 0 C74.08 1.13, 134.55 0.8, 209.5 0 M209.5 0 C219.9 0.53, 222.19 3.41, 224 14.5 M209.5 0 C217.04 1.35, 222.29 6.19, 224 14.5 M224 14.5 C225.6 24.81, 223.42 33.44, 224 43.5 M224 14.5 C224.21 22.98, 223.71 32.83, 224 43.5 M224 43.5 C223.49 52.34, 217.8 59.57, 209.5 58 M224 43.5 C221.77 51.96, 218.05 57.97, 209.5 58 M209.5 58 C162.45 61.21, 113.58 60.28, 14.5 58 M209.5 58 C133.71 59.23, 58.62 59.14, 14.5 58 M14.5 58 C5.01 58.85, 0.76 51.96, 0 43.5 M14.5 58 C5.72 58.58, 1.04 52.44, 0 43.5 M0 43.5 C1.02 34.48, 0.22 26.28, 0 14.5 M0 43.5 C-0.35 34.65, 1.02 23.49, 0 14.5 M0 14.5 C1.87 5.27, 5.02 0.48, 14.5 0 M0 14.5 C1.31 4.53, 3.58 -0.85, 14.5 0" stroke="#000000" stroke-width="1" fill="none"></path></g><g transform="translate(469.8706359863281 134.68414306640625) rotate(0 53 12)"><text x="53" y="20" font-family="Cascadia, Segoe UI Emoji" font-size="20px" fill="#000000" text-anchor="middle" style="white-space: pre;" direction="ltr">all files</text></g><g stroke-linecap="round" transform="translate(399.8822937011719 10) rotate(0 112 29)"><path d="M14.5 0 M14.5 0 C59.96 0.13, 107.16 1.03, 209.5 0 M14.5 0 C76.74 2.01, 138.22 0.55, 209.5 0 M209.5 0 C219.97 0.18, 224.06 6.35, 224 14.5 M209.5 0 C218.31 0.94, 223.34 4.94, 224 14.5 M224 14.5 C225.35 24.4, 225.71 36.44, 224 43.5 M224 14.5 C224.48 25.01, 224.86 35.46, 224 43.5 M224 43.5 C223.4 55, 217.51 56.8, 209.5 58 M224 43.5 C221.76 53.04, 220.8 58.43, 209.5 58 M209.5 58 C161.41 58.11, 115.39 58.47, 14.5 58 M209.5 58 C158.49 59.88, 109.67 60.16, 14.5 58 M14.5 58 C6.82 59.89, -0.61 54.09, 0 43.5 M14.5 58 C3.97 59.23, -1.86 52.96, 0 43.5 M0 43.5 C0.18 34.92, 1.28 26.82, 0 14.5 M0 43.5 C-1.17 36.96, -0.24 29.99, 0 14.5 M0 14.5 C1.32 3.12, 3.82 -1.31, 14.5 0 M0 14.5 C0.41 5.23, 2.83 2.21, 14.5 0" stroke="#000000" stroke-width="1" fill="none"></path></g><g transform="translate(458.8822937011719 27) rotate(0 53 12)"><text x="53" y="20" font-family="Cascadia, Segoe UI Emoji" font-size="20px" fill="#000000" text-anchor="middle" style="white-space: pre;" direction="ltr">fast-glob</text></g><g stroke-linecap="round"><g transform="translate(515.3062364558529 75.90267944335938) rotate(0 -0.044413867877665325 19.819744964316484)"><path d="M0.21 -0.89 C0.17 5.73, -1.01 33.85, -1.22 40.53 M-1.14 1.26 C-0.71 7.47, 1.29 32.34, 1.12 38.83" stroke="#000000" stroke-width="1" fill="none"></path></g><g transform="translate(515.3062364558529 75.90267944335938) rotate(0 -0.044413867877665325 19.819744964316484)"><path d="M-7.77 19.27 C-3.18 23.58, -3.79 29.43, 0.52 39.82 M-5.97 20.1 C-3.27 27.76, -1.73 33.35, 0.42 38.23" stroke="#000000" stroke-width="1" fill="none"></path></g><g transform="translate(515.3062364558529 75.90267944335938) rotate(0 -0.044413867877665325 19.819744964316484)"><path d="M5.8 18.8 C7.4 23.24, 3.79 29.19, 0.52 39.82 M7.6 19.63 C5.59 27.47, 2.4 33.22, 0.42 38.23" stroke="#000000" stroke-width="1" fill="none"></path></g></g><mask></mask><g stroke-linecap="round" transform="translate(590.0508117675781 254.08395385742188) rotate(0 112 29)"><path d="M14.5 0 M14.5 0 C79.08 2.41, 143.54 0.22, 209.5 0 M14.5 0 C65.63 1.99, 116.28 2.4, 209.5 0 M209.5 0 C220.29 1.46, 225.94 4.73, 224 14.5 M209.5 0 C219.48 2.14, 225.27 3.34, 224 14.5 M224 14.5 C224.71 22.41, 224.03 30.09, 224 43.5 M224 14.5 C223.3 25.99, 223.87 36.75, 224 43.5 M224 43.5 C225.35 54.4, 218.8 59.61, 209.5 58 M224 43.5 C224.18 51.87, 220.41 57.21, 209.5 58 M209.5 58 C150.05 58.06, 91.13 56.16, 14.5 58 M209.5 58 C135.79 58.79, 61.22 59.35, 14.5 58 M14.5 58 C2.86 57.1, -0.4 55.01, 0 43.5 M14.5 58 C4.18 55.95, -1.23 53.66, 0 43.5 M0 43.5 C-0.27 37.83, -1.07 30.31, 0 14.5 M0 43.5 C0.12 36.15, -0.17 28.4, 0 14.5 M0 14.5 C1.5 4.6, 4.86 -1.67, 14.5 0 M0 14.5 C0.96 5.98, 5.58 -1.35, 14.5 0" stroke="#5f3dc4" stroke-width="1" fill="none"></path></g><g transform="translate(631.0508117675781 271.0839538574219) rotate(0 71 12)"><text x="71" y="20" font-family="Cascadia, Segoe UI Emoji" font-size="20px" fill="#5f3dc4" text-anchor="middle" style="white-space: pre;" direction="ltr">unused files</text></g><g stroke-linecap="round"><g transform="translate(516.5619201660156 180.784912109375) rotate(0 -44.36925131268799 36.174945052340604)"><path d="M0.58 -0.73 C-14.14 11.25, -74.56 60.94, -89.32 73.08 M-0.57 1.5 C-14.81 13.64, -72.32 59.34, -86.96 71.29" stroke="#000000" stroke-width="1" fill="none"></path></g></g><mask></mask><g stroke-linecap="round"><g transform="translate(521.6733093261719 181.62286376953125) rotate(0 92.65904005803174 34.82955088205637)"><path d="M0.25 -0.53 C31.38 11.04, 155.48 58.55, 186.4 70.19 M-1.08 1.81 C29.94 13, 154.53 57.18, 185.49 68.66" stroke="#000000" stroke-width="1" fill="none"></path></g></g><mask></mask></svg>